<?xml version="1.0" encoding="utf-8"?>
<!-- Generator: Adobe Illustrator 25.3.1, SVG Export Plug-In . SVG Version: 6.00 Build 0)  -->
<svg version="1.1" id="Layer_1" xmlns="http://www.w3.org/2000/svg" xmlns:xlink="http://www.w3.org/1999/xlink" x="0px" y="0px"
	 viewBox="0 0 100 100" style="enable-background:new 0 0 100 100;" xml:space="preserve">
<style type="text/css">
	.st0{fill:#FFFFFF;}
</style>
<g>
	<path class="st0" d="M67.9,25.3c2.3,0,4.4,0,6.5,0c4.5,0.1,8.3,3.6,8.6,8.1c0.2,2.1,0.2,4.2,0.3,6.2c0.5,10.2,1,20.5,1.4,30.7
		c0.2,5,0.5,10,0.7,15c0.2,5.4-3.7,9.4-9.1,9.4c-17.6,0-35.2,0-52.8,0c-5.4,0-9.3-4.1-9.1-9.5c0.5-10.6,1-21.2,1.5-31.8
		c0.3-5.9,0.5-11.8,0.8-17.7c0.1-1.2,0.1-2.5,0.4-3.7c0.9-3.9,4.4-6.7,8.4-6.8c2.1,0,4.2,0,6.5,0c-0.4-7,1.9-12.9,7.8-17
		c3.4-2.4,7.2-3.4,11.4-3.1c5.1,0.4,9.3,2.5,12.6,6.5C67.1,15.6,68.2,20.2,67.9,25.3z M50,88.9c8.7,0,17.5,0,26.2,0
		c2.2,0,3.4-1.2,3.3-3.5c0-1-0.1-1.9-0.1-2.9c-0.5-10.1-1-20.2-1.4-30.3c-0.3-5.9-0.5-11.9-0.9-17.8c-0.1-2.2-1.3-3.2-3.4-3.2
		c-4.7,0-9.3,0-14,0.1c-11.2,0-22.3,0.1-33.5,0.1c-2.1,0-3.2,1-3.4,3.2c-0.2,2.4-0.2,4.9-0.3,7.3c-0.7,14.5-1.4,29-2,43.5
		c-0.1,2.5,1,3.6,3.5,3.6C32.6,88.9,41.3,88.9,50,88.9z M38.1,25.3c8,0,15.9,0,23.8,0c0.4-5.1-1.1-9.4-5.5-12.2
		c-4.1-2.6-8.5-2.7-12.6-0.2C39.3,15.7,37.7,20,38.1,25.3z"/>
	<path class="st0" d="M50,55.4c-8.4,0-15.6-5.7-17.5-13.8c-0.4-1.6,0.1-2.9,1.4-3.6c1.2-0.7,2.8-0.5,3.7,0.6
		c0.4,0.5,0.7,1.2,0.9,1.8c1.3,4.8,4.3,7.8,9.2,8.9c6.1,1.4,12.3-2.4,14-8.4c0.1-0.3,0.1-0.5,0.2-0.8c0.5-1.8,2-2.8,3.7-2.4
		c1.6,0.4,2.6,2,2.1,3.8c-1.5,6-5.1,10.3-10.8,12.7C54.7,55.1,52.4,55.5,50,55.4z"/>
</g>
</svg>
