<?xml version="1.0" encoding="utf-8"?>
<!-- Generator: Adobe Illustrator 25.3.1, SVG Export Plug-In . SVG Version: 6.00 Build 0)  -->
<svg version="1.1" id="Layer_1" xmlns="http://www.w3.org/2000/svg" xmlns:xlink="http://www.w3.org/1999/xlink" x="0px" y="0px"
	 viewBox="0 0 1366 244" style="enable-background:new 0 0 1366 244;" xml:space="preserve">
<style type="text/css">
	.st0{fill:#0A0A0A;}
	.st1{fill:#6B705C;}
</style>
<g>
	<path class="st0" d="M106.8,208.6c-11.9,0-23-2-33.4-6.1c-10.4-4.1-19.4-9.9-27-17.3c-7.7-7.4-13.7-16.4-18.2-26.9
		c-4.5-10.5-6.7-22.2-6.7-35c0-12.8,2.3-24.5,6.8-35.1C32.9,77.6,39.1,68.5,46.8,61c7.7-7.5,16.7-13.3,27-17.5
		c10.3-4.2,21.1-6.3,32.6-6.3c12.4,0,23,1.8,32,5.3c9,3.6,16.5,8.1,22.7,13.6c6.2,5.5,11,11.5,14.5,18c3.5,6.5,5.9,12.7,7.3,18.5
		l-34.5,10.9c-0.6-2.8-1.8-5.9-3.6-9.5c-1.8-3.6-4.3-6.9-7.5-10.1c-3.2-3.2-7.4-5.8-12.4-7.9c-5-2.1-11.2-3.1-18.4-3.1
		c-5.6,0-11.1,1-16.7,3c-5.6,2-10.6,5.1-15.1,9.2c-4.5,4.1-8.1,9.3-10.9,15.7c-2.8,6.3-4.2,13.8-4.2,22.5c0,7.7,1.3,14.6,3.9,20.6
		c2.6,6,6.1,11.1,10.5,15.3c4.4,4.2,9.4,7.3,15.1,9.5c5.6,2.2,11.6,3.2,17.7,3.2c7.1,0,13.2-1,18.3-3.1s9.4-4.7,12.8-7.9
		c3.4-3.2,6.1-6.5,8-10.1c1.9-3.6,3.3-6.8,4.1-9.7l35,10c-1.4,5.7-3.8,11.9-7.3,18.5c-3.5,6.6-8.3,12.9-14.6,18.7
		c-6.3,5.8-14,10.6-23.3,14.5C130.5,206.7,119.5,208.6,106.8,208.6z"/>
	<path class="st0" d="M250.4,86.4c8.7,0,16.7,1.5,24.1,4.5c7.4,3,13.9,7.2,19.4,12.6c5.5,5.4,9.8,11.8,13,19.2
		c3.2,7.4,4.8,15.6,4.8,24.6c0,9-1.6,17.2-4.8,24.7c-3.2,7.5-7.5,14-13,19.4c-5.5,5.4-11.9,9.6-19.4,12.6c-7.4,3-15.5,4.5-24.1,4.5
		c-8.7,0-16.7-1.5-24.1-4.5c-7.4-3-13.9-7.2-19.4-12.6c-5.5-5.4-9.8-11.9-13-19.4c-3.2-7.5-4.8-15.7-4.8-24.7c0-9,1.6-17.2,4.8-24.6
		c3.2-7.4,7.5-13.8,13-19.2c5.5-5.4,11.9-9.6,19.4-12.6C233.7,87.9,241.7,86.4,250.4,86.4z M250.4,176.1c3.4,0,6.6-0.6,9.7-1.7
		c3.1-1.2,5.8-2.9,8.2-5.3c2.4-2.4,4.3-5.4,5.8-8.9c1.5-3.6,2.2-7.8,2.2-12.8c0-4.8-0.7-9-2.2-12.6c-1.5-3.6-3.4-6.6-5.8-8.9
		c-2.4-2.3-5.1-4.1-8.2-5.2c-3.1-1.2-6.3-1.7-9.7-1.7c-3.2,0-6.5,0.6-9.6,1.7c-3.2,1.2-6,2.9-8.3,5.2c-2.4,2.3-4.3,5.3-5.8,8.9
		c-1.5,3.6-2.2,7.8-2.2,12.6c0,4.8,0.7,9,2.2,12.6c1.5,3.6,3.4,6.6,5.8,9c2.4,2.4,5.2,4.2,8.3,5.3
		C243.9,175.6,247.1,176.1,250.4,176.1z"/>
	<path class="st0" d="M444.9,119.6v85.6h-35.2v-85.6h-40.6v85.6h-35.2v-85.6h-18.3V89.9h18.3v-10c0-6.6,1-12.7,2.9-18.1
		c1.9-5.4,4.8-10.1,8.6-14c3.8-3.9,8.4-7,13.9-9.2c5.5-2.2,11.7-3.2,18.7-3.2c2.9,0,6,0.2,9.3,0.7c3.2,0.5,5.7,1.1,7.4,1.9v28.8
		c-0.9-0.3-2.2-0.6-3.9-0.8c-1.7-0.2-3.9-0.3-6.5-0.3c-1.5,0-3.2,0.2-5,0.6c-1.8,0.4-3.4,1.1-4.9,2.2c-1.5,1.1-2.7,2.6-3.7,4.4
		c-1,1.9-1.5,4.3-1.5,7.2v10h40.6v-10c0-6.6,1-12.7,2.9-18.1c1.9-5.4,4.8-10.1,8.6-14c3.8-3.9,8.4-7,13.8-9.2
		c5.4-2.2,11.6-3.2,18.5-3.2c3.1,0,6.3,0.2,9.5,0.6c3.2,0.4,5.7,1,7.4,1.7v29c-0.9-0.3-2.2-0.6-3.9-0.8c-1.7-0.2-3.9-0.3-6.5-0.3
		c-1.5,0-3.2,0.2-5,0.6c-1.8,0.4-3.4,1.1-4.9,2.2c-1.5,1.1-2.7,2.6-3.7,4.4c-1,1.9-1.5,4.3-1.5,7.2v10h25v29.7H444.9z"/>
	<path class="st0" d="M584.9,172c-1.4,4.9-3.6,9.7-6.5,14.1c-2.9,4.5-6.6,8.4-11.1,11.7c-4.5,3.3-9.7,6-15.6,7.9
		c-6,1.9-12.6,2.9-19.8,2.9c-7.9,0-15.5-1.4-22.7-4.2c-7.3-2.8-13.7-6.8-19.2-12.1c-5.6-5.3-10-11.7-13.2-19.2
		c-3.2-7.6-4.9-16.2-4.9-26c0-9.3,1.6-17.7,4.8-25.2c3.2-7.5,7.4-13.9,12.8-19.1c5.3-5.3,11.5-9.3,18.4-12.2
		c7-2.9,14.1-4.3,21.6-4.3c17.9,0,32,5.2,42.3,15.5c10.3,10.4,15.4,24.9,15.4,43.6c0,2.5-0.1,4.8-0.2,7.1c-0.2,2.2-0.3,3.5-0.5,3.8
		h-80.2c0.2,3.2,1,6.2,2.4,8.9c1.5,2.7,3.4,5.1,5.8,7.1c2.4,2,5.1,3.6,8.2,4.6c3.1,1.1,6.3,1.6,9.7,1.6c6.5,0,11.6-1.4,15.2-4.2
		c3.6-2.8,6.3-6.4,8-10.9L584.9,172z M552.9,133.7c-0.2-2.2-0.7-4.4-1.5-6.7c-0.9-2.3-2.2-4.4-4.1-6.3c-1.9-1.9-4.2-3.4-7.1-4.6
		c-2.9-1.2-6.4-1.9-10.5-1.9c-3.7,0-7,0.6-9.7,1.9c-2.8,1.2-5.1,2.8-7.1,4.6c-1.9,1.9-3.4,3.9-4.4,6.3c-1,2.3-1.6,4.6-1.7,6.7H552.9
		z"/>
	<path class="st0" d="M708,172c-1.4,4.9-3.6,9.7-6.5,14.1c-2.9,4.5-6.6,8.4-11.1,11.7c-4.5,3.3-9.7,6-15.7,7.9
		c-6,1.9-12.6,2.9-19.8,2.9c-7.9,0-15.5-1.4-22.7-4.2c-7.3-2.8-13.7-6.8-19.2-12.1c-5.6-5.3-10-11.7-13.2-19.2
		c-3.2-7.6-4.9-16.2-4.9-26c0-9.3,1.6-17.7,4.8-25.2c3.2-7.5,7.4-13.9,12.8-19.1c5.3-5.3,11.5-9.3,18.4-12.2
		c7-2.9,14.1-4.3,21.6-4.3c17.9,0,32,5.2,42.3,15.5c10.3,10.4,15.4,24.9,15.4,43.6c0,2.5-0.1,4.8-0.2,7.1c-0.2,2.2-0.3,3.5-0.5,3.8
		h-80.2c0.2,3.2,1,6.2,2.4,8.9c1.5,2.7,3.4,5.1,5.8,7.1c2.4,2,5.1,3.6,8.2,4.6c3.1,1.1,6.3,1.6,9.7,1.6c6.5,0,11.6-1.4,15.2-4.2
		c3.6-2.8,6.3-6.4,8-10.9L708,172z M676,133.7c-0.2-2.2-0.7-4.4-1.5-6.7c-0.9-2.3-2.2-4.4-4.1-6.3c-1.9-1.9-4.2-3.4-7.1-4.6
		c-2.9-1.2-6.4-1.9-10.5-1.9c-3.7,0-7,0.6-9.7,1.9c-2.8,1.2-5.1,2.8-7.1,4.6c-1.9,1.9-3.4,3.9-4.4,6.3c-1,2.3-1.6,4.6-1.7,6.7H676z"
		/>
	<path class="st1" d="M876.6,205.1v-109l-42.9,109H804L761.1,97.5v107.6h-34.8V40.7h47.8l45.2,111.1l42.9-111.1h50.3v164.4H876.6z"
		/>
	<path class="st1" d="M929,173.4c0-5.1,0.9-9.7,2.7-13.7c1.8-4,4.2-7.5,7.3-10.3c3.1-2.9,6.7-5.2,10.8-7c4.1-1.8,8.5-3,13.3-3.8
		l27.1-4.2c3.1-0.5,5.3-1.4,6.5-2.8c1.2-1.4,1.9-3.1,1.9-5.1c0-3.4-1.4-6.3-4.3-8.8c-2.9-2.5-7.1-3.7-12.6-3.7
		c-6.2,0-10.9,1.7-14.3,5.2c-3.3,3.5-5.1,7.4-5.4,11.7l-30.6-6.3c0.3-4.2,1.5-8.5,3.7-13c2.2-4.5,5.3-8.6,9.4-12.3
		c4.1-3.7,9.2-6.8,15.4-9.3c6.2-2.5,13.5-3.7,22-3.7c9.3,0,17.2,1.2,23.6,3.6c6.5,2.4,11.8,5.6,15.9,9.7c4.1,4.1,7,8.9,8.8,14.3
		c1.8,5.4,2.7,11.1,2.7,16.9v56.3c0,4.5,0.2,8.4,0.6,11.8c0.4,3.4,0.7,5.4,0.8,6h-31.8c-0.2-0.5-0.4-1.7-0.7-3.8
		c-0.3-2.1-0.5-5.1-0.5-9.2c-3.1,4.9-7.3,8.9-12.8,11.8c-5.4,2.9-12,4.4-19.7,4.4c-6.3,0-12-1-16.9-2.9c-4.9-1.9-9.1-4.5-12.5-7.8
		c-3.4-3.2-6-7-7.8-11.1C929.9,182.4,929,178,929,173.4z M977.5,182.9c2.6,0,5.2-0.3,7.8-1c2.6-0.7,4.8-1.9,6.7-3.7
		c1.9-1.8,3.5-4.1,4.8-7.1c1.2-2.9,1.9-6.6,1.9-11.1v-5.1l-21.8,3.5c-3.7,0.6-6.8,1.9-9.3,3.8c-2.5,1.9-3.7,4.9-3.7,8.9
		c0,3.1,1,5.8,3.1,8.2C969,181.7,972.5,182.9,977.5,182.9z"/>
	<path class="st1" d="M1097.6,89.9h22.5v30.8h-22.5v43.1c0,4.8,1.2,8,3.5,9.6s5.4,2.4,9.3,2.4c1.9,0,3.6-0.1,5.2-0.3
		c1.6-0.2,3-0.5,4.1-0.8V204c-0.8,0.3-2.6,0.9-5.6,1.9c-2.9,0.9-7.2,1.4-12.8,1.4c-12.1,0-21.5-3.3-28.3-9.9
		c-6.8-6.6-10.2-15.6-10.2-27.2v-49.4h-20.4V89.9h5.8c6,0,10.5-1.8,13.4-5.3c2.9-3.6,4.4-8,4.4-13.4V56.3h31.5V89.9z"/>
	<path class="st1" d="M1240.4,172c-1.4,4.9-3.6,9.7-6.5,14.1c-2.9,4.5-6.6,8.4-11.1,11.7c-4.5,3.3-9.7,6-15.7,7.9
		c-6,1.9-12.6,2.9-19.8,2.9c-7.9,0-15.5-1.4-22.7-4.2c-7.3-2.8-13.7-6.8-19.2-12.1c-5.6-5.3-10-11.7-13.2-19.2
		c-3.2-7.6-4.9-16.2-4.9-26c0-9.3,1.6-17.7,4.8-25.2c3.2-7.5,7.4-13.9,12.8-19.1c5.3-5.3,11.5-9.3,18.4-12.2
		c7-2.9,14.1-4.3,21.6-4.3c17.9,0,32,5.2,42.3,15.5c10.3,10.4,15.4,24.9,15.4,43.6c0,2.5-0.1,4.8-0.2,7.1c-0.2,2.2-0.3,3.5-0.5,3.8
		h-80.2c0.2,3.2,1,6.2,2.4,8.9c1.5,2.7,3.4,5.1,5.8,7.1c2.4,2,5.1,3.6,8.2,4.6c3.1,1.1,6.3,1.6,9.7,1.6c6.5,0,11.6-1.4,15.2-4.2
		c3.6-2.8,6.3-6.4,8-10.9L1240.4,172z M1208.4,133.7c-0.2-2.2-0.7-4.4-1.5-6.7c-0.9-2.3-2.2-4.4-4.1-6.3c-1.9-1.9-4.2-3.4-7.1-4.6
		c-2.9-1.2-6.4-1.9-10.5-1.9c-3.7,0-7,0.6-9.7,1.9c-2.8,1.2-5.1,2.8-7.1,4.6c-1.9,1.9-3.4,3.9-4.4,6.3c-1,2.3-1.6,4.6-1.7,6.7
		H1208.4z"/>
	<path class="st1" d="M1279.8,167.1c0.3,4,1.9,7.6,4.8,10.8c2.9,3.2,7.3,4.8,13.3,4.8c4.5,0,7.8-1,10.1-3c2.2-2,3.4-4.3,3.4-7
		c0-2.2-0.8-4.1-2.4-5.7s-4.6-2.9-8.9-3.8l-13.2-3c-6.2-1.4-11.4-3.2-15.8-5.6c-4.3-2.3-7.9-5-10.7-8.1c-2.8-3.1-4.8-6.5-6-10.2
		c-1.2-3.7-1.9-7.6-1.9-11.6c0-5.3,1.1-10.2,3.2-14.8c2.2-4.6,5.2-8.7,9.2-12.2c3.9-3.5,8.6-6.2,14-8.2c5.4-2,11.4-3,17.9-3
		c8.3,0,15.4,1.2,21.1,3.5c5.7,2.3,10.4,5.2,14,8.7c3.6,3.5,6.3,7.2,8,11.1c1.7,3.9,2.7,7.6,3,11l-29.2,5.3c-0.5-3.9-2-7.2-4.5-10
		c-2.6-2.8-6.5-4.2-11.9-4.2c-3.4,0-6.3,0.9-8.8,2.7c-2.5,1.8-3.7,4.2-3.7,7.3c0,2.5,0.8,4.4,2.6,5.8c1.7,1.4,3.9,2.3,6.5,2.8
		l15.3,3c12.1,2.5,21,7,26.8,13.6c5.8,6.6,8.7,14.1,8.7,22.6c0,4.9-0.9,9.7-2.8,14.4c-1.9,4.6-4.7,8.8-8.6,12.4
		c-3.9,3.6-8.7,6.6-14.4,8.8c-5.7,2.2-12.4,3.4-20.2,3.4c-9.1,0-16.7-1.3-22.8-3.8c-6.1-2.6-11-5.7-14.7-9.4
		c-3.7-3.7-6.5-7.7-8.2-11.8c-1.8-4.2-2.7-7.9-2.9-11.1L1279.8,167.1z"/>
</g>
</svg>
